<svg width="50" height="50" viewBox="0 0 50 50" fill="none" xmlns="http://www.w3.org/2000/svg">
<path d="M25.0003 4.1665C13.5003 4.1665 4.16699 13.4998 4.16699 24.9998C4.16699 36.4998 13.5003 45.8332 25.0003 45.8332C36.5003 45.8332 45.8337 36.4998 45.8337 24.9998C45.8337 13.4998 36.5003 4.1665 25.0003 4.1665ZM25.0003 10.4165C28.4587 10.4165 31.2503 13.2082 31.2503 16.6665C31.2503 20.1248 28.4587 22.9165 25.0003 22.9165C21.542 22.9165 18.7503 20.1248 18.7503 16.6665C18.7503 13.2082 21.542 10.4165 25.0003 10.4165ZM25.0003 39.9998C19.792 39.9998 15.1878 37.3332 12.5003 33.2915C12.5628 29.1457 20.8337 26.8748 25.0003 26.8748C29.1462 26.8748 37.4378 29.1457 37.5003 33.2915C34.8128 37.3332 30.2087 39.9998 25.0003 39.9998Z" fill="white"/>
</svg>
