<svg width="81" height="66" viewBox="0 0 81 66" fill="none" xmlns="http://www.w3.org/2000/svg">
<path d="M31.3906 47.9442C31.3906 49.3915 31.3435 50.666 31.2493 51.7676C31.1709 52.7447 31.0377 53.7168 30.8503 54.6793C30.3933 56.8848 29.3642 58.9344 27.8644 60.6263C25.0676 63.8158 21.2221 65.4106 16.328 65.4106C12.1972 65.4106 8.79637 64.309 6.1256 62.1058C3.37171 59.8409 1.78282 56.7042 1.35893 52.6956H8.54217C8.81922 54.2047 9.27427 55.3707 9.90734 56.1938C11.3909 58.1021 13.5519 59.0562 16.3903 59.0562C21.6238 59.0562 24.2406 55.8776 24.2406 49.5205V45.2403C21.4022 48.1212 18.1288 49.5616 14.4205 49.5616C10.2052 49.5616 6.75173 48.0526 4.06018 45.0345C1.35339 41.9602 0 38.1252 0 33.5295C0 29.06 1.26128 25.2621 3.78382 22.1356C6.49615 18.8199 10.0763 17.1627 14.5244 17.1641C18.4225 17.1641 21.664 18.6011 24.2489 21.4751V18.0139H31.3989L31.3906 47.9442ZM24.519 33.4081C24.519 30.4285 23.7135 28.0469 22.1024 26.2635C20.4775 24.4417 18.3934 23.5308 15.8501 23.5308C13.1391 23.5308 10.9996 24.5275 9.43151 26.5208C8.01162 28.3042 7.30168 30.6123 7.30168 33.4452C7.30168 36.2355 8.01162 38.5224 9.43151 40.3058C10.9774 42.2565 13.117 43.2319 15.8501 43.2319C18.5832 43.2319 20.7442 42.2463 22.3331 40.2749C23.7904 38.4833 24.519 36.1943 24.519 33.4081Z" fill="#636366"/>
<path d="M47.389 43.709C47.3726 44.9032 46.8408 46.0439 45.908 46.8853C44.9753 47.7268 43.7161 48.2018 42.4017 48.2081C41.7407 48.2181 41.0843 48.1049 40.4732 47.8756C39.8621 47.6463 39.3091 47.3057 38.8484 46.8748C38.3728 46.4634 37.9966 45.9666 37.7436 45.416C37.4906 44.8654 37.3664 44.2731 37.3788 43.6766C37.3683 43.076 37.4932 42.4799 37.746 41.925C37.9987 41.3701 38.3739 40.868 38.8484 40.4499C39.2989 40.0177 39.8436 39.6754 40.4476 39.4448C41.0517 39.2142 41.702 39.1004 42.3571 39.1105C43.0208 39.1089 43.6783 39.2269 44.2916 39.4578C44.9048 39.6886 45.4615 40.0277 45.9295 40.4554C46.3975 40.8831 46.7674 41.3909 47.018 41.9494C47.2685 42.5078 47.3946 43.1059 47.389 43.709ZM38.5402 31.1271V0H46.2276V31.1271H38.5402Z" fill="#636366"/>
<path d="M60.3784 0V27.55L70.4359 17.6586H80.0165L66.5967 30.5028L80.9996 48.2466H71.7364L61.5212 35.3386L60.3784 36.4701V48.2466H53.2412V0H60.3784Z" fill="#636366"/>
</svg>
