<svg width="141" height="112" viewBox="0 0 141 112" fill="none" xmlns="http://www.w3.org/2000/svg">
<path d="M54.6428 81.8669C54.6428 84.3382 54.5609 86.5143 54.3969 88.3953C54.2605 90.0639 54.0286 91.7237 53.7024 93.3672C52.9069 97.1331 51.1156 100.633 48.5047 103.522C43.6361 108.968 36.9422 111.691 28.4228 111.691C21.2321 111.691 15.3122 109.81 10.6631 106.048C5.86928 102.181 3.10343 96.8247 2.36555 89.98H14.8697C15.352 92.5567 16.1441 94.5478 17.2461 95.9533C19.8287 99.2116 23.5904 100.841 28.5313 100.841C37.6415 100.841 42.1966 95.4133 42.1966 84.5584V77.2499C37.2557 82.1691 31.5576 84.6287 25.1024 84.6287C17.7646 84.6287 11.753 82.0519 7.06772 76.8985C2.35591 71.6491 0 65.1007 0 57.2535C0 49.6217 2.19555 43.1366 6.58666 37.7982C11.3081 32.1364 17.5403 29.3067 25.2832 29.3091C32.0688 29.3091 37.7114 31.7628 42.211 36.6703V30.7602H54.6573L54.6428 81.8669ZM42.6812 57.0462C42.6812 51.9583 41.279 47.8918 38.4746 44.8466C35.6461 41.7358 32.0182 40.1804 27.5909 40.1804C22.8718 40.1804 19.1475 41.8822 16.4178 45.2858C13.9462 48.331 12.7103 52.2722 12.7103 57.1094C12.7103 61.874 13.9462 65.7789 16.4178 68.8241C19.1089 72.155 22.8333 73.8205 27.5909 73.8205C32.3485 73.8205 36.1103 72.1375 38.8761 68.7714C41.4129 65.7121 42.6812 61.8037 42.6812 57.0462Z" fill="#1C1C1E"/>
<path d="M82.3817 74.699C82.3532 76.7381 81.4275 78.6857 79.8038 80.1225C78.1801 81.5593 75.9883 82.3704 73.7002 82.3812C72.5495 82.3982 71.4069 82.205 70.3431 81.8135C69.2793 81.4219 68.3167 80.8404 67.5147 80.1046C66.6869 79.4021 66.0321 78.5538 65.5917 77.6137C65.1513 76.6736 64.935 75.6621 64.9565 74.6435C64.9382 73.6181 65.1558 72.6003 65.5958 71.6527C66.0357 70.7051 66.6888 69.8479 67.5147 69.1339C68.299 68.3959 69.2471 67.8114 70.2986 67.4177C71.3501 67.0239 72.4821 66.8296 73.6225 66.8469C74.7779 66.8442 75.9225 67.0457 76.9899 67.4399C78.0573 67.834 79.0264 68.413 79.8411 69.1433C80.6558 69.8736 81.2998 70.7406 81.7359 71.6943C82.172 72.6479 82.3915 73.6692 82.3817 74.699ZM66.9782 53.2151V1.58447H80.3601V53.2151H66.9782Z" fill="#1C1C1E"/>
<path d="M105.104 0V47.0421L122.611 30.1523H139.288L115.928 52.0842L141 82.382H124.875L107.093 60.3415L105.104 62.2734V82.382H92.6797V0H105.104Z" fill="#1C1C1E"/>
</svg>
