<svg width="44" height="36" viewBox="0 0 44 36" fill="none" xmlns="http://www.w3.org/2000/svg">
<path d="M17.0518 26.0442C17.0518 26.8304 17.0262 27.5227 16.975 28.1211C16.9325 28.6519 16.8601 29.1799 16.7583 29.7028C16.5101 30.9008 15.9511 32.0142 15.1363 32.9332C13.617 34.6658 11.5281 35.5321 8.86958 35.5321C6.62566 35.5321 4.7783 34.9337 3.32751 33.7369C1.83156 32.5066 0.968452 30.8027 0.738191 28.6252H4.64022C4.79072 29.4449 5.03791 30.0783 5.3818 30.5255C6.18771 31.5621 7.3616 32.0803 8.90345 32.0803C11.7463 32.0803 13.1678 30.3537 13.1678 26.9004V24.5754C11.6259 26.1403 9.84782 26.9228 7.83341 26.9228C5.54358 26.9228 3.66763 26.103 2.20554 24.4636C0.735181 22.7936 0 20.7104 0 18.2139C0 15.786 0.685142 13.7229 2.05542 12.0246C3.5288 10.2234 5.4736 9.32323 7.88984 9.32398C10.0073 9.32398 11.7682 10.1046 13.1723 11.6658V9.78563H17.0563L17.0518 26.0442ZM13.319 18.148C13.319 16.5294 12.8815 15.2357 12.0063 14.2669C11.1237 13.2773 9.99154 12.7825 8.60997 12.7825C7.13735 12.7825 5.97514 13.3239 5.12332 14.4067C4.35202 15.3754 3.96637 16.6292 3.96637 18.1681C3.96637 19.6838 4.35202 20.9261 5.12332 21.8949C5.9631 22.9545 7.12531 23.4844 8.60997 23.4844C10.0946 23.4844 11.2685 22.949 12.1316 21.8781C12.9232 20.9049 13.319 19.6615 13.319 18.148Z" fill="white"/>
<path d="M25.7428 23.7433C25.7339 24.392 25.445 25.0116 24.9383 25.4687C24.4317 25.9258 23.7477 26.1839 23.0337 26.1873C22.6746 26.1927 22.318 26.1312 21.9861 26.0067C21.6541 25.8821 21.3537 25.6971 21.1034 25.463C20.8451 25.2395 20.6408 24.9697 20.5033 24.6706C20.3659 24.3715 20.2984 24.0497 20.3051 23.7257C20.2994 23.3995 20.3673 23.0757 20.5046 22.7742C20.6419 22.4728 20.8457 22.2001 21.1034 21.9729C21.3482 21.7381 21.644 21.5522 21.9722 21.4269C22.3003 21.3017 22.6536 21.2398 23.0094 21.2454C23.37 21.2445 23.7272 21.3086 24.0603 21.434C24.3934 21.5594 24.6958 21.7436 24.95 21.9759C25.2042 22.2082 25.4052 22.4841 25.5413 22.7874C25.6774 23.0908 25.7459 23.4157 25.7428 23.7433ZM20.936 16.9087V0H25.1119V16.9087H20.936Z" fill="white"/>
<path d="M32.7989 0V14.9655L38.2623 9.59236H43.4665L36.1768 16.5695L44.0006 26.2082H38.9687L33.4197 19.1964L32.7989 19.811V26.2082H28.9219V0H32.7989Z" fill="white"/>
</svg>
