<svg width="141" height="114" viewBox="0 0 141 114" fill="none" xmlns="http://www.w3.org/2000/svg">
<path d="M54.6428 83.4592C54.6428 85.9786 54.5608 88.1971 54.3969 90.1146C54.2605 91.8156 54.0286 93.5078 53.7024 95.1832C52.9069 99.0224 51.1155 102.59 48.5047 105.535C43.6361 111.088 36.9422 113.864 28.4228 113.864C21.2321 113.864 15.3122 111.946 10.6631 108.111C5.86927 104.168 3.10343 98.708 2.36555 91.7302H14.8697C15.352 94.357 16.1441 96.3868 17.2461 97.8196C19.8287 101.141 23.5904 102.802 28.5313 102.802C37.6415 102.802 42.1965 97.2692 42.1965 86.203V78.7524C37.2556 83.7673 31.5576 86.2747 25.1023 86.2747C17.7645 86.2747 11.753 83.6479 7.06772 78.3942C2.3559 73.0426 0 66.3669 0 58.3669C0 50.5867 2.19555 43.9755 6.58666 38.5331C11.3081 32.7613 17.5403 29.8765 25.2832 29.8789C32.0688 29.8789 37.7114 32.3804 42.211 37.3833V31.3583H54.6573L54.6428 83.4592ZM42.6812 58.1556C42.6812 52.9688 41.279 48.8232 38.4746 45.7187C35.646 42.5474 32.0181 40.9618 27.5909 40.9618C22.8718 40.9618 19.1475 42.6967 16.4178 46.1665C13.9462 49.2709 12.7103 53.2888 12.7103 58.2201C12.7103 63.0773 13.9462 67.0582 16.4178 70.1626C19.1089 73.5584 22.8332 75.2563 27.5909 75.2563C32.3485 75.2563 36.1102 73.5405 38.8761 70.1089C41.4128 66.9901 42.6812 63.0057 42.6812 58.1556Z" fill="#1C1C1E"/>
<path d="M82.4921 76.0861C82.4636 78.1649 81.5378 80.1504 79.9141 81.6152C78.2904 83.0799 76.0986 83.9068 73.8106 83.9178C72.6598 83.9351 71.5173 83.7382 70.4535 83.339C69.3897 82.9398 68.4271 82.3469 67.6251 81.5969C66.7973 80.8807 66.1424 80.0159 65.702 79.0575C65.2616 78.0991 65.0454 77.068 65.0669 76.0296C65.0486 74.9842 65.2661 73.9466 65.7061 72.9806C66.1461 72.0146 66.7992 71.1407 67.6251 70.4128C68.4094 69.6604 69.3574 69.0645 70.409 68.6631C71.4605 68.2617 72.5925 68.0636 73.7328 68.0813C74.8883 68.0785 76.0328 68.2839 77.1003 68.6858C78.1677 69.0876 79.1368 69.6779 79.9515 70.4223C80.7661 71.1668 81.4101 72.0508 81.8462 73.0229C82.2823 73.9951 82.5019 75.0363 82.4921 76.0861ZM67.0886 54.1842V0H80.4704V54.1842H67.0886Z" fill="#1C1C1E"/>
<path d="M105.104 0V47.9573L122.611 30.739H139.288L115.928 53.0975L141 83.9847H124.875L107.093 61.5154L105.104 63.485V83.9847H92.6797V0H105.104Z" fill="#1C1C1E"/>
</svg>
